<svg version="1.2" baseProfile="tiny" id="Layer_1" xmlns="http://www.w3.org/2000/svg" xmlns:xlink="http://www.w3.org/1999/xlink" x="0px" y="0px" overflow="visible" xml:space="preserve" viewBox="305.55 317.87 108.9 84.27"> <g> 	 		<ellipse transform="matrix(0.832826 -0.553535 0.553535 0.832826 -139.08992 259.4552)" fill="#36399A" cx="360" cy="360" rx="62.47559" ry="28.877529"></ellipse> 	<g> 		<g> 			<path fill="#EE0890" d="M341.483093,365.635498v15.085449h-24.477539v-41.441895h43.146973 				c12.17627,0,18.264648,4.007324,18.264648,12.021973c0,7.186523-4.932617,11.145996-14.796875,11.87793l15.114746,17.541992 				h-24.24707L341.483093,365.635498z M341.483093,354.942627h8.583496c4.295898,0,6.444336-1.290527,6.444336-3.872559 				c0-2.562012-2.504395-3.84375-7.513672-3.84375h-7.51416V354.942627z"></path> 		</g> 		<g> 			<path fill="#FEE213" d="M388.392883,380.720947h-12.912109v-12.407227h-14.525391v-9.729004h14.525391v-12.406738h12.912109 				v12.407715h14.601562v9.728027h-14.601562V380.720947z"></path> 		</g> 	</g> </g> </svg>