<svg version="1.2" baseProfile="tiny" id="Layer_1" xmlns="http://www.w3.org/2000/svg" xmlns:xlink="http://www.w3.org/1999/xlink" x="0px" y="0px" overflow="visible" xml:space="preserve" viewBox="160.4 337.92 399.2 44.15"> <g> 	<g> 		<path fill="#EE0890" d="M184.888184,365.852295v15.085449h-24.477539V339.49585h43.146973 			c12.17627,0,18.264648,4.007324,18.264648,12.021973c0,7.186523-4.932617,11.145996-14.796875,11.87793l15.114746,17.541992 			h-24.24707L184.888184,365.852295z M184.888184,355.159424h8.583496c4.295898,0,6.444336-1.290527,6.444336-3.872559 			c0-2.562012-2.504395-3.84375-7.513672-3.84375h-7.51416V355.159424z"></path> 		<path fill="#EE0890" d="M250.519043,380.937744h-24.246582V339.49585h24.246582V380.937744z"></path> 		<path fill="#EE0890" d="M291.06543,371.718994l13.842773-32.223145h24.044434l-22.339355,41.441895h-31.558594 			l-21.905762-41.239746v-0.202148h23.408691L291.06543,371.718994z"></path> 		<path fill="#EE0890" d="M335.27002,339.49585h31.558105l22.339844,41.441895h-24.044922l-4.074219-9.016602h-20.201172 			l-4.074707,9.016602h-23.408691v-0.202148L335.27002,339.49585z M344.922852,361.835205h12.253418l-5.895508-13.120605 			L344.922852,361.835205z"></path> 		<path fill="#EE0890" d="M391.97168,339.49585h24.911621v30.922363h31.125v0.202148l-5.780273,10.317383h-41.67334 			c-5.722656,0-8.583008-2.86084-8.583008-8.583008V339.49585z"></path> 		<path fill="#EE0890" d="M449.375488,379.117432V367.44165c8.74707,2.871094,16.876953,4.306152,24.391602,4.306152 			c2.774414,0,4.96582-0.269531,6.574219-0.809082s2.413086-1.261719,2.413086-2.16748 			c0-0.578125-0.568359-1.15625-1.705078-1.734375c-1.136719-0.577637-4.132812-1.483398-8.987305-2.716309 			c-4.585938-1.117188-8.391602-2.186523-11.416016-3.208008c-3.024414-1.020996-5.65918-2.384277-7.90332-4.089355 			c-2.245117-1.705078-3.367188-3.751953-3.367188-6.141113c0-2.29248,1.237305-4.455078,3.713867-6.487793 			c2.475586-2.032715,6.092773-3.617188,10.851562-4.753906s10.451172-1.705078,17.079102-1.705078 			c10.422852,0,19.81543,1.531738,28.177734,4.594727v11.35791c-8.362305-3.737793-15.789062-5.606934-22.28125-5.606934 			c-2.65918,0-4.768555,0.265137-6.329102,0.794922c-1.560547,0.530273-2.34082,1.247559-2.34082,2.152832 			c0,0.693848,0.639648,1.373047,1.921875,2.037598c1.280273,0.664551,4.618164,1.661621,10.013672,2.991211 			c4.604492,1.155762,8.423828,2.22998,11.458008,3.222168c3.035156,0.992676,5.650391,2.302734,7.84668,3.930176 			c2.196289,1.628418,3.293945,3.588867,3.293945,5.881348c0,3.699219-2.836914,6.75293-8.510742,9.161133 			c-5.673828,2.40918-13.635742,3.612305-23.885742,3.612305C468.593262,382.064697,458.257324,381.082275,449.375488,379.117432z"></path> 	</g> 	<g> 		<path fill="#FEE213" d="M544.987793,376.157959h-12.912109v-12.407227h-14.525391v-9.729004h14.525391V341.61499h12.912109 			v12.407715h14.601562v9.728027h-14.601562V376.157959z"></path> 	</g> </g> </svg>